<?xml version="1.0" encoding="utf-8" ?>
<svg baseProfile="full" height="600px" version="1.1" width="600px" xmlns="http://www.w3.org/2000/svg" xmlns:ev="http://www.w3.org/2001/xml-events" xmlns:xlink="http://www.w3.org/1999/xlink"><defs /><circle cx="180.0" cy="437.0" fill="rgb(178,196,220)" r="8.5" /><circle cx="26.0" cy="158.99999999999991" fill="rgb(253,74,246)" r="32.5" /><circle cx="157.00000000000003" cy="398.0" fill="rgb(202,123,195)" r="12.5" /><circle cx="116.99999999999997" cy="77.00000000000003" fill="rgb(238,35,140)" r="11.5" /><circle cx="533.0" cy="548.0000000000001" fill="rgb(5,23,242)" r="49.5" /><circle cx="125.00000000000003" cy="54.0" fill="rgb(220,55,39)" r="41.5" /><circle cx="160.0" cy="228.0" fill="rgb(29,133,89)" r="26.5" /><circle cx="121.99999999999991" cy="360.0" fill="rgb(246,152,78)" r="49.5" /><circle cx="538.0" cy="258.0" fill="rgb(39,196,115)" r="8.5" /><circle cx="195.0" cy="368.0" fill="rgb(248,178,187)" r="18.5" /><circle cx="451.0" cy="362.0" fill="rgb(9,4,127)" r="21.5" /><circle cx="395.0" cy="103.99999999999991" fill="rgb(8,178,38)" r="27.5" /><circle cx="544.0" cy="22.0" fill="rgb(32,65,194)" r="7.0" /><circle cx="364.0" cy="337.99999999999994" fill="rgb(252,184,116)" r="26.0" /><circle cx="331.0" cy="391.0" fill="rgb(4,248,15)" r="38.5" /><circle cx="131.99999999999997" cy="96.0" fill="rgb(156,243,94)" r="10.0" /><circle cx="331.0" cy="229.99999999999994" fill="rgb(3,136,8)" r="24.5" /><circle cx="469.9999999999999" cy="358.0" fill="rgb(13,195,3)" r="49.5" /><circle cx="479.0" cy="55.9999999999998" fill="rgb(193,240,85)" r="22.0" /><circle cx="472.9999999999999" cy="2.0" fill="rgb(141,151,56)" r="49.5" /><circle cx="412.9999999999999" cy="0.0" fill="rgb(34,208,92)" r="36.5" /><circle cx="68.00000000000003" cy="307.00000000000006" fill="rgb(89,241,245)" r="35.0" /><circle cx="74.99999999999997" cy="563.9999999999999" fill="rgb(95,161,72)" r="12.0" /><circle cx="154.99999999999994" cy="369.0" fill="rgb(221,200,106)" r="32.5" /><circle cx="492.0" cy="453.0" fill="rgb(111,253,202)" r="15.0" /><circle cx="512.0" cy="247.0" fill="rgb(141,40,204)" r="22.0" /><circle cx="213.99999999999994" cy="583.0" fill="rgb(177,15,31)" r="31.5" /><circle cx="95.00000000000003" cy="151.00000000000003" fill="rgb(167,22,24)" r="5.0" /><circle cx="157.00000000000006" cy="54.999999999999716" fill="rgb(150,150,107)" r="41.5" /><circle cx="408.0" cy="27.999999999999943" fill="rgb(233,137,170)" r="26.5" /><circle cx="384.0" cy="62.999999999999886" fill="rgb(35,168,29)" r="43.5" /><circle cx="545.0" cy="307.99999999999994" fill="rgb(1,116,150)" r="42.5" /><circle cx="353.99999999999994" cy="521.0" fill="rgb(200,117,214)" r="38.5" /><circle cx="128.99999999999997" cy="427.00000000000006" fill="rgb(11,56,136)" r="19.5" /><circle cx="39.00000000000006" cy="188.0" fill="rgb(1,129,22)" r="8.5" /><circle cx="214.0" cy="81.99999999999989" fill="rgb(247,20,241)" r="47.5" /><circle cx="237.99999999999994" cy="13.99999999999983" fill="rgb(188,101,163)" r="46.0" /><circle cx="460.0" cy="407.0" fill="rgb(110,229,173)" r="43.5" /><circle cx="123.99999999999997" cy="173.0" fill="rgb(60,251,201)" r="8.5" /><circle cx="529.0" cy="294.0" fill="rgb(226,129,251)" r="10.5" /><circle cx="142.99999999999997" cy="282.0" fill="rgb(186,6,139)" r="7.5" /><circle cx="77.0" cy="124.0" fill="rgb(149,225,247)" r="26.0" /><circle cx="191.99999999999994" cy="316.0" fill="rgb(244,3,92)" r="17.5" /><circle cx="560.0" cy="126.99999999999994" fill="rgb(236,61,139)" r="22.0" /><circle cx="452.0" cy="550.0" fill="rgb(214,180,50)" r="17.5" /><circle cx="172.99999999999997" cy="277.0" fill="rgb(3,37,25)" r="14.5" /><circle cx="42.00000000000006" cy="599.9999999999999" fill="rgb(195,87,107)" r="39.0" /><circle cx="35.0" cy="570.0000000000001" fill="rgb(36,91,182)" r="35.0" /><circle cx="373.0" cy="238.00000000000006" fill="rgb(150,59,30)" r="35.0" /><circle cx="143.99999999999991" cy="256.00000000000006" fill="rgb(108,52,213)" r="36.0" /></svg>