<?xml version="1.0" encoding="utf-8" ?>
<svg baseProfile="full" height="500" version="1.1" width="500" xmlns="http://www.w3.org/2000/svg" xmlns:ev="http://www.w3.org/2001/xml-events" xmlns:xlink="http://www.w3.org/1999/xlink"><defs /><g><path d="M 0 184.28022405579574 L 0 191.88586924408636 L 10 191.88586924408636 L 20 191.88586924408634 L 30 191.88586924408634 L 40 191.8858692440863 L 50 191.8858692440863 L 60 191.88586924408628 L 70 191.88586924408628 L 80 191.88586924408628 L 90 191.88586924408625 L 100 191.88586924408625 L 110 191.88586924408588 L 120 191.88586924408622 L 130 191.88586924408656 L 140 191.8858692440862 L 150 191.88586924408582 L 160 191.88586924408617 L 170 191.8858692440865 L 180 191.88586924408614 L 190 191.8858692440858 L 200 191.88586924408614 L 210 191.88586924408577 L 220 191.8858692440847 L 230 191.88586924408503 L 240 191.88586924408537 L 250 191.8858692440857 L 260 191.88586924408605 L 270 191.88586924408497 L 280 191.8858692440853 L 290 191.88586924408565 L 300 191.8858692440846 L 310 191.88586924408494 L 320 191.88586924408528 L 330 191.88586924408563 L 340 191.88586924408597 L 350 191.8858692440849 L 360 191.88586924408523 L 370 191.88586924408557 L 380 191.8858692440845 L 390 191.88586924408483 L 400 191.88586924408517 L 410 191.88586924408412 L 420 191.88586924408585 L 430 191.8858692440848 L 440 191.88586924408372 L 450 191.88586924408548 L 460 191.8858692440844 L 470 191.88586924408614 L 480 191.8858692440851 L 490 191.885869244084" stroke="rgb(97,253,44)" stroke-width="2" /><path d="M 0 316.87210638724815 L 0 366.8692093370284 L 10 366.8692093370284 L 20 366.8692093370284 L 30 366.8692093370284 L 40 366.8692093370284 L 50 366.8692093370284 L 60 366.8692093370284 L 70 366.8692093370284 L 80 366.8692093370284 L 90 366.8692093370284 L 100 366.8692093370284 L 110 366.8692093370284 L 120 366.8692093370284 L 130 366.8692093370284 L 140 366.8692093370284 L 150 366.8692093370284 L 160 366.8692093370284 L 170 366.8692093370284 L 180 366.8692093370284 L 190 366.8692093370284 L 200 366.8692093370284 L 210 366.8692093370284 L 220 366.8692093370284 L 230 366.8692093370284 L 240 366.8692093370284 L 250 366.8692093370284 L 260 366.86920933702845 L 270 366.8692093370284 L 280 366.8692093370284 L 290 366.8692093370284 L 300 366.8692093370284 L 310 366.8692093370284 L 320 366.8692093370284 L 330 366.8692093370284 L 340 366.86920933702845 L 350 366.8692093370284 L 360 366.8692093370284 L 370 366.8692093370284 L 380 366.8692093370284 L 390 366.8692093370284 L 400 366.8692093370284 L 410 366.8692093370284 L 420 366.8692093370284 L 430 366.8692093370284 L 440 366.8692093370284 L 450 366.8692093370284 L 460 366.8692093370284 L 470 366.86920933702845 L 480 366.8692093370284 L 490 366.8692093370284" stroke="rgb(204,115,3)" stroke-width="2" /><path d="M 0 217.49481610438593 L 0 260.20615393175893 L 10 260.20615393175893 L 20 260.2061539317589 L 30 260.2061539317589 L 40 260.2061539317589 L 50 260.20615393175893 L 60 260.20615393175893 L 70 260.20615393175893 L 80 260.20615393175893 L 90 260.20615393175893 L 100 260.20615393175893 L 110 260.20615393175876 L 120 260.20615393175893 L 130 260.2061539317591 L 140 260.2061539317589 L 150 260.2061539317587 L 160 260.2061539317589 L 170 260.20615393175905 L 180 260.2061539317589 L 190 260.2061539317587 L 200 260.2061539317589 L 210 260.20615393175865 L 220 260.2061539317581 L 230 260.2061539317583 L 240 260.2061539317585 L 250 260.20615393175865 L 260 260.2061539317588 L 270 260.20615393175825 L 280 260.2061539317584 L 290 260.20615393175865 L 300 260.2061539317581 L 310 260.20615393175825 L 320 260.2061539317584 L 330 260.2061539317586 L 340 260.20615393175876 L 350 260.2061539317582 L 360 260.2061539317584 L 370 260.2061539317586 L 380 260.206153931758 L 390 260.2061539317582 L 400 260.20615393175837 L 410 260.20615393175854 L 420 260.20615393175945 L 430 260.2061539317589 L 440 260.20615393175837 L 450 260.2061539317593 L 460 260.2061539317587 L 470 260.2061539317596 L 480 260.20615393175905 L 490 260.2061539317585" stroke="rgb(125,195,134)" stroke-width="2" /><path d="M 0 110.60504504396185 L 0 113.85621158458709 L 10 113.85621158458707 L 20 113.8562115845871 L 30 113.8562115845871 L 40 113.85621158458709 L 50 113.85621158458707 L 60 113.85621158458687 L 70 113.85621158458687 L 80 113.85621158458686 L 90 113.85621158458684 L 100 113.85621158458683 L 110 113.85621158458646 L 120 113.8562115845868 L 130 113.85621158458714 L 140 113.85621158458679 L 150 113.85621158458642 L 160 113.85621158458676 L 170 113.8562115845871 L 180 113.85621158458673 L 190 113.85621158458636 L 200 113.8562115845867 L 210 113.85621158458775 L 220 113.85621158458669 L 230 113.85621158458703 L 240 113.85621158458737 L 250 113.85621158458771 L 260 113.85621158458805 L 270 113.85621158458697 L 280 113.85621158458731 L 290 113.85621158458767 L 300 113.85621158458659 L 310 113.85621158458693 L 320 113.85621158458727 L 330 113.85621158458761 L 340 113.85621158458795 L 350 113.85621158458687 L 360 113.85621158458723 L 370 113.85621158458757 L 380 113.85621158458649 L 390 113.85621158458683 L 400 113.85621158458717 L 410 113.85621158458468 L 420 113.85621158458645 L 430 113.85621158458537 L 440 113.85621158458429 L 450 113.85621158458605 L 460 113.85621158458497 L 470 113.85621158458673 L 480 113.85621158458565 L 490 113.85621158458459" stroke="rgb(80,60,109)" stroke-width="2" /><path d="M 0 80.1791113209508 L 0 30.672925094791694 L 10 30.672925094791687 L 20 30.672925094791687 L 30 30.672925094791687 L 40 30.67292509479168 L 50 30.67292509479168 L 60 30.67292509479168 L 70 30.672925094791673 L 80 30.672925094791673 L 90 30.672925094791673 L 100 30.672925094791722 L 110 30.672925094791665 L 120 30.672925094791722 L 130 30.672925094791772 L 140 30.672925094791715 L 150 30.672925094791665 L 160 30.672925094791715 L 170 30.672925094791758 L 180 30.672925094791708 L 190 30.67292509479166 L 200 30.6729250947916 L 210 30.67292509479165 L 220 30.672925094791502 L 230 30.67292509479155 L 240 30.672925094791594 L 250 30.672925094791644 L 260 30.672925094791694 L 270 30.672925094791538 L 280 30.672925094791594 L 290 30.672925094791644 L 300 30.672925094791488 L 310 30.672925094791538 L 320 30.672925094791587 L 330 30.67292509479163 L 340 30.67292509479168 L 350 30.67292509479153 L 360 30.67292509479158 L 370 30.672925094791623 L 380 30.672925094791474 L 390 30.672925094791523 L 400 30.672925094791772 L 410 30.672925094791616 L 420 30.67292509479187 L 430 30.672925094791715 L 440 30.672925094791566 L 450 30.672925094791815 L 460 30.67292509479166 L 470 30.672925094791907 L 480 30.672925094791758 L 490 30.6729250947916" stroke="rgb(84,56,119)" stroke-width="2" /><path d="M 0 345.59462260189514 L 0 297.6941708733367 L 10 297.6941708733367 L 20 297.6941708733367 L 30 297.6941708733367 L 40 297.6941708733367 L 50 297.69417087333676 L 60 297.69417087333676 L 70 297.69417087333676 L 80 297.69417087333676 L 90 297.69417087333676 L 100 297.69417087333665 L 110 297.69417087333653 L 120 297.69417087333665 L 130 297.6941708733367 L 140 297.69417087333665 L 150 297.69417087333653 L 160 297.6941708733366 L 170 297.6941708733367 L 180 297.6941708733366 L 190 297.6941708733365 L 200 297.6941708733366 L 210 297.6941708733367 L 220 297.69417087333636 L 230 297.6941708733365 L 240 297.6941708733366 L 250 297.6941708733367 L 260 297.69417087333676 L 270 297.6941708733365 L 280 297.6941708733366 L 290 297.6941708733367 L 300 297.69417087333636 L 310 297.6941708733365 L 320 297.6941708733366 L 330 297.69417087333665 L 340 297.69417087333676 L 350 297.6941708733365 L 360 297.69417087333653 L 370 297.69417087333665 L 380 297.69417087333636 L 390 297.6941708733364 L 400 297.69417087333653 L 410 297.69417087333625 L 420 297.6941708733367 L 430 297.6941708733364 L 440 297.69417087333613 L 450 297.6941708733366 L 460 297.6941708733363 L 470 297.6941708733368 L 480 297.6941708733365 L 490 297.6941708733362" stroke="rgb(98,51,243)" stroke-width="2" /><path d="M 0 222.7954296338129 L 0 214.18030618246195 L 10 214.18030618246192 L 20 214.18030618246192 L 30 214.1803061824619 L 40 214.1803061824619 L 50 214.1803061824619 L 60 214.18030618246186 L 70 214.18030618246186 L 80 214.18030618246183 L 90 214.18030618246183 L 100 214.1803061824618 L 110 214.18030618246146 L 120 214.1803061824618 L 130 214.18030618246212 L 140 214.18030618246178 L 150 214.1803061824614 L 160 214.18030618246175 L 170 214.1803061824621 L 180 214.18030618246172 L 190 214.18030618246135 L 200 214.180306182461 L 210 214.18030618246274 L 220 214.18030618246166 L 230 214.1803061824606 L 240 214.18030618246235 L 250 214.1803061824613 L 260 214.18030618246303 L 270 214.18030618246198 L 280 214.1803061824609 L 290 214.18030618246263 L 300 214.18030618246158 L 310 214.18030618246053 L 320 214.18030618246226 L 330 214.18030618246118 L 340 214.1803061824629 L 350 214.18030618246186 L 360 214.1803061824608 L 370 214.18030618246254 L 380 214.1803061824615 L 390 214.1803061824604 L 400 214.18030618246215 L 410 214.1803061824611 L 420 214.18030618246283 L 430 214.18030618246178 L 440 214.1803061824607 L 450 214.18030618246246 L 460 214.18030618246138 L 470 214.1803061824631 L 480 214.18030618246206 L 490 214.180306182461" stroke="rgb(126,98,175)" stroke-width="2" /><path d="M 0 233.1749610385202 L 0 200.23847825700304 L 10 200.23847825700304 L 20 200.23847825700295 L 30 200.23847825700295 L 40 200.23847825700295 L 50 200.23847825700292 L 60 200.23847825700292 L 70 200.23847825700292 L 80 200.2384782570029 L 90 200.2384782570029 L 100 200.2384782570029 L 110 200.2384782570026 L 120 200.23847825700287 L 130 200.23847825700312 L 140 200.23847825700284 L 150 200.23847825700255 L 160 200.23847825700284 L 170 200.2384782570031 L 180 200.2384782570028 L 190 200.23847825700255 L 200 200.23847825700332 L 210 200.23847825700358 L 220 200.23847825700278 L 230 200.23847825700304 L 240 200.2384782570033 L 250 200.23847825700355 L 260 200.2384782570038 L 270 200.238478257003 L 280 200.23847825700324 L 290 200.23847825700352 L 300 200.2384782570027 L 310 200.23847825700295 L 320 200.2384782570032 L 330 200.23847825700346 L 340 200.23847825700375 L 350 200.23847825700292 L 360 200.23847825700318 L 370 200.23847825700344 L 380 200.2384782570026 L 390 200.2384782570029 L 400 200.23847825700207 L 410 200.23847825700125 L 420 200.23847825700258 L 430 200.2384782570018 L 440 200.23847825700096 L 450 200.2384782570023 L 460 200.23847825700147 L 470 200.2384782570028 L 480 200.238478257002 L 490 200.2384782570012" stroke="rgb(64,187,67)" stroke-width="2" /><path d="M 0 1.1348274842619133 L 0 16.71601745090698 L 10 16.716017450906968 L 20 16.716017450906982 L 30 16.716017450906993 L 40 16.716017450907003 L 50 16.716017450907184 L 60 16.716017450907195 L 70 16.71601745090721 L 80 16.71601745090722 L 90 16.71601745090723 L 100 16.716017450906904 L 110 16.716017450907252 L 120 16.71601745090693 L 130 16.7160174509066 L 140 16.71601745090695 L 150 16.716017450907298 L 160 16.716017450906975 L 170 16.716017450906648 L 180 16.716017450906996 L 190 16.716017450907348 L 200 16.71601745090702 L 210 16.716017450906694 L 220 16.716017450907717 L 230 16.716017450907394 L 240 16.716017450907067 L 250 16.71601745090674 L 260 16.716017450906413 L 270 16.716017450907437 L 280 16.716017450907113 L 290 16.71601745090679 L 300 16.716017450907813 L 310 16.716017450907486 L 320 16.71601745090716 L 330 16.716017450906833 L 340 16.71601745090651 L 350 16.716017450907533 L 360 16.71601745090721 L 370 16.71601745090688 L 380 16.716017450907906 L 390 16.71601745090758 L 400 16.716017450907252 L 410 16.716017450908275 L 420 16.7160174509066 L 430 16.71601745090763 L 440 16.71601745090865 L 450 16.716017450906975 L 460 16.716017450907998 L 470 16.71601745090632 L 480 16.716017450907348 L 490 16.71601745090837" stroke="rgb(37,50,188)" stroke-width="2" /><path d="M 0 137.6423250888024 L 0 113.30076904709651 L 10 113.3007690470965 L 20 113.30076904709657 L 30 113.30076904709655 L 40 113.30076904709654 L 50 113.30076904709654 L 60 113.30076904709652 L 70 113.30076904709651 L 80 113.30076904709651 L 90 113.30076904709648 L 100 113.30076904709617 L 110 113.30076904709584 L 120 113.30076904709614 L 130 113.30076904709645 L 140 113.30076904709613 L 150 113.3007690470958 L 160 113.30076904709611 L 170 113.3007690470964 L 180 113.30076904709608 L 190 113.30076904709577 L 200 113.30076904709668 L 210 113.30076904709698 L 220 113.30076904709604 L 230 113.30076904709634 L 240 113.30076904709664 L 250 113.30076904709694 L 260 113.30076904709723 L 270 113.3007690470963 L 280 113.3007690470966 L 290 113.30076904709689 L 300 113.30076904709595 L 310 113.30076904709625 L 320 113.30076904709655 L 330 113.30076904709685 L 340 113.30076904709715 L 350 113.30076904709621 L 360 113.30076904709651 L 370 113.30076904709681 L 380 113.30076904709587 L 390 113.30076904709617 L 400 113.30076904709647 L 410 113.30076904709553 L 420 113.30076904709706 L 430 113.30076904709613 L 440 113.30076904709517 L 450 113.30076904709672 L 460 113.30076904709578 L 470 113.30076904709732 L 480 113.30076904709638 L 490 113.30076904709544" stroke="rgb(136,254,241)" stroke-width="2" /><path d="M 0 129.19405591051452 L 0 131.12031250501934 L 10 131.12031250501934 L 20 131.12031250501937 L 30 131.12031250501929 L 40 131.12031250501926 L 50 131.12031250501926 L 60 131.12031250501923 L 70 131.12031250501923 L 80 131.1203125050192 L 90 131.1203125050192 L 100 131.1203125050192 L 110 131.12031250501883 L 120 131.12031250501917 L 130 131.1203125050195 L 140 131.12031250501914 L 150 131.12031250501877 L 160 131.12031250501911 L 170 131.12031250501946 L 180 131.1203125050191 L 190 131.12031250501872 L 200 131.12031250501906 L 210 131.1203125050194 L 220 131.12031250501832 L 230 131.12031250501866 L 240 131.120312505019 L 250 131.12031250501937 L 260 131.1203125050197 L 270 131.12031250501863 L 280 131.12031250501897 L 290 131.1203125050193 L 300 131.12031250501823 L 310 131.12031250501857 L 320 131.12031250501892 L 330 131.12031250501926 L 340 131.1203125050196 L 350 131.12031250501852 L 360 131.12031250501886 L 370 131.1203125050192 L 380 131.12031250501812 L 390 131.1203125050185 L 400 131.12031250501883 L 410 131.12031250501775 L 420 131.1203125050195 L 430 131.12031250501843 L 440 131.12031250501735 L 450 131.12031250501911 L 460 131.12031250501803 L 470 131.1203125050198 L 480 131.12031250501872 L 490 131.12031250501764" stroke="rgb(140,114,158)" stroke-width="2" /><path d="M 0 43.11056070948504 L 0 69.47232540526866 L 10 69.47232540526869 L 20 69.47232540526872 L 30 69.47232540526872 L 40 69.47232540526872 L 50 69.47232540526859 L 60 69.4723254052686 L 70 69.4723254052686 L 80 69.47232540526862 L 90 69.47232540526863 L 100 69.47232540526863 L 110 69.47232540526895 L 120 69.47232540526866 L 130 69.47232540526838 L 140 69.47232540526869 L 150 69.47232540526899 L 160 69.4723254052687 L 170 69.4723254052684 L 180 69.47232540526872 L 190 69.47232540526903 L 200 69.47232540526875 L 210 69.47232540526846 L 220 69.47232540526937 L 230 69.47232540526907 L 240 69.47232540526879 L 250 69.47232540526849 L 260 69.47232540526821 L 270 69.47232540526912 L 280 69.47232540526883 L 290 69.47232540526853 L 300 69.47232540526946 L 310 69.47232540526916 L 320 69.47232540526888 L 330 69.47232540526858 L 340 69.4723254052683 L 350 69.4723254052692 L 360 69.47232540526892 L 370 69.47232540526862 L 380 69.47232540526954 L 390 69.47232540526925 L 400 69.47232540526895 L 410 69.47232540526987 L 420 69.47232540526838 L 430 69.47232540526929 L 440 69.4723254052702 L 450 69.4723254052687 L 460 69.47232540526963 L 470 69.47232540526812 L 480 69.47232540526903 L 490 69.47232540526996" stroke="rgb(166,29,91)" stroke-width="2" /><path d="M 0 90.50357468864739 L 0 63.15490349158019 L 10 63.154903491580185 L 20 63.15490349158024 L 30 63.15490349158023 L 40 63.15490349158023 L 50 63.154903491580214 L 60 63.1549034915802 L 70 63.15490349158019 L 80 63.154903491580185 L 90 63.15490349158017 L 100 63.154903491580164 L 110 63.15490349157986 L 120 63.15490349158014 L 130 63.15490349158043 L 140 63.15490349158012 L 150 63.154903491579816 L 160 63.1549034915801 L 170 63.154903491580384 L 180 63.154903491580086 L 190 63.15490349157977 L 200 63.15490349158006 L 210 63.15490349158035 L 220 63.15490349157945 L 230 63.15490349157973 L 240 63.154903491580015 L 250 63.1549034915803 L 260 63.15490349158059 L 270 63.15490349157969 L 280 63.15490349157997 L 290 63.154903491580264 L 300 63.15490349157936 L 310 63.154903491579645 L 320 63.15490349157994 L 330 63.15490349158023 L 340 63.15490349158051 L 350 63.15490349157961 L 360 63.154903491579894 L 370 63.154903491580185 L 380 63.15490349157928 L 390 63.15490349157956 L 400 63.15490349157986 L 410 63.15490349157895 L 420 63.15490349158043 L 430 63.154903491579525 L 440 63.15490349157862 L 450 63.1549034915801 L 460 63.1549034915792 L 470 63.154903491580676 L 480 63.15490349157977 L 490 63.15490349157887" stroke="rgb(129,74,195)" stroke-width="2" /><path d="M 0 193.41656279153224 L 0 145.64885869870167 L 10 145.6488586987017 L 20 145.6488586987017 L 30 145.64885869870173 L 40 145.64885869870173 L 50 145.64885869870173 L 60 145.64885869870173 L 70 145.64885869870173 L 80 145.64885869870173 L 90 145.64885869870176 L 100 145.64885869870164 L 110 145.64885869870176 L 120 145.64885869870164 L 130 145.64885869870156 L 140 145.64885869870164 L 150 145.64885869870176 L 160 145.64885869870167 L 170 145.64885869870156 L 180 145.64885869870167 L 190 145.6488586987018 L 200 145.64885869870187 L 210 145.6488586987018 L 220 145.6488586987021 L 230 145.648858698702 L 240 145.6488586987019 L 250 145.64885869870182 L 260 145.6488586987017 L 270 145.648858698702 L 280 145.64885869870193 L 290 145.64885869870182 L 300 145.64885869870213 L 310 145.64885869870204 L 320 145.64885869870193 L 330 145.64885869870184 L 340 145.64885869870173 L 350 145.64885869870204 L 360 145.64885869870193 L 370 145.64885869870184 L 380 145.64885869870216 L 390 145.64885869870207 L 400 145.64885869870196 L 410 145.64885869870227 L 420 145.64885869870176 L 430 145.64885869870207 L 440 145.64885869870238 L 450 145.64885869870187 L 460 145.64885869870218 L 470 145.64885869870167 L 480 145.64885869870199 L 490 145.64885869870233" stroke="rgb(32,37,13)" stroke-width="2" /><path d="M 0 468.3307364621468 L 0 516.9598714423803 L 10 516.9598714423803 L 20 516.9598714423803 L 30 516.9598714423803 L 40 516.9598714423803 L 50 516.9598714423803 L 60 516.9598714423803 L 70 516.9598714423803 L 80 516.9598714423803 L 90 516.9598714423803 L 100 516.9598714423803 L 110 516.9598714423803 L 120 516.9598714423803 L 130 516.9598714423804 L 140 516.9598714423803 L 150 516.9598714423802 L 160 516.9598714423803 L 170 516.9598714423804 L 180 516.9598714423803 L 190 516.9598714423802 L 200 516.9598714423803 L 210 516.9598714423802 L 220 516.95987144238 L 230 516.9598714423801 L 240 516.9598714423801 L 250 516.9598714423802 L 260 516.9598714423803 L 270 516.9598714423801 L 280 516.9598714423801 L 290 516.9598714423802 L 300 516.95987144238 L 310 516.9598714423801 L 320 516.9598714423801 L 330 516.9598714423802 L 340 516.9598714423803 L 350 516.9598714423801 L 360 516.9598714423801 L 370 516.9598714423802 L 380 516.95987144238 L 390 516.95987144238 L 400 516.9598714423801 L 410 516.9598714423798 L 420 516.9598714423803 L 430 516.95987144238 L 440 516.9598714423797 L 450 516.9598714423802 L 460 516.9598714423798 L 470 516.9598714423803 L 480 516.9598714423801 L 490 516.9598714423798" stroke="rgb(223,132,149)" stroke-width="2" /><path d="M 0 214.2927450545355 L 0 253.42448257517967 L 10 253.42448257517964 L 20 253.42448257517964 L 30 253.42448257517964 L 40 253.42448257517967 L 50 253.42448257517978 L 60 253.42448257517978 L 70 253.4244825751798 L 80 253.4244825751798 L 90 253.4244825751798 L 100 253.42448257517958 L 110 253.4244825751798 L 120 253.4244825751796 L 130 253.4244825751794 L 140 253.42448257517964 L 150 253.42448257517987 L 160 253.42448257517964 L 170 253.4244825751794 L 180 253.42448257517967 L 190 253.4244825751799 L 200 253.42448257517967 L 210 253.4244825751799 L 220 253.42448257518058 L 230 253.42448257518035 L 240 253.42448257518015 L 250 253.42448257517992 L 260 253.42448257517972 L 270 253.42448257518038 L 280 253.42448257518018 L 290 253.42448257517998 L 300 253.42448257518063 L 310 253.42448257518043 L 320 253.4244825751802 L 330 253.42448257517998 L 340 253.42448257517978 L 350 253.42448257518046 L 360 253.42448257518024 L 370 253.42448257518004 L 380 253.4244825751807 L 390 253.4244825751805 L 400 253.42448257518026 L 410 253.42448257518095 L 420 253.42448257517984 L 430 253.4244825751805 L 440 253.42448257518117 L 450 253.4244825751801 L 460 253.42448257518075 L 470 253.42448257517967 L 480 253.42448257518032 L 490 253.424482575181" stroke="rgb(196,240,55)" stroke-width="2" /><path d="M 0 29.951840515348216 L 0 -2.270138935910701 L 10 -2.270138935910694 L 20 -2.270138935910616 L 30 -2.2701389359106017 L 40 -2.2701389359105946 L 50 -2.2701389359105875 L 60 -2.2701389359105733 L 70 -2.270138935910566 L 80 -2.270138935910559 L 90 -2.270138935910545 L 100 -2.2701389359108077 L 110 -2.2701389359105306 L 120 -2.2701389359107935 L 130 -2.2701389359110564 L 140 -2.270138935910772 L 150 -2.270138935910495 L 160 -2.270138935910751 L 170 -2.270138935911014 L 180 -2.2701389359107367 L 190 -2.2701389359104525 L 200 -2.2701389359101753 L 210 -2.2701389359104382 L 220 -2.270138935909607 L 230 -2.270138935909877 L 240 -2.27013893591014 L 250 -2.2701389359103956 L 260 -2.2701389359106585 L 270 -2.2701389359098343 L 280 -2.270138935910097 L 290 -2.27013893591036 L 300 -2.270138935909536 L 310 -2.2701389359097988 L 320 -2.2701389359100617 L 330 -2.2701389359103246 L 340 -2.2701389359105875 L 350 -2.2701389359097632 L 360 -2.270138935910026 L 370 -2.270138935910289 L 380 -2.2701389359094577 L 390 -2.2701389359097277 L 400 -2.2701389359099906 L 410 -2.2701389359102464 L 420 -2.2701389359115964 L 430 -2.270138935910772 L 440 -2.270138935909948 L 450 -2.270138935911298 L 460 -2.2701389359104738 L 470 -2.270138935911824 L 480 -2.2701389359109996 L 490 -2.2701389359101753" stroke="rgb(91,244,91)" stroke-width="2" /><path d="M 0 18.587064942416852 L 0 66.72127265125144 L 10 66.72127265125144 L 20 66.72127265125144 L 30 66.72127265125141 L 40 66.72127265125141 L 50 66.72127265125145 L 60 66.72127265125144 L 70 66.72127265125144 L 80 66.72127265125144 L 90 66.72127265125144 L 100 66.72127265125134 L 110 66.72127265125124 L 120 66.72127265125133 L 130 66.72127265125143 L 140 66.72127265125133 L 150 66.72127265125123 L 160 66.72127265125133 L 170 66.72127265125141 L 180 66.72127265125131 L 190 66.72127265125121 L 200 66.7212726512513 L 210 66.7212726512516 L 220 66.7212726512513 L 230 66.7212726512514 L 240 66.72127265125148 L 250 66.72127265125158 L 260 66.72127265125167 L 270 66.72127265125138 L 280 66.72127265125147 L 290 66.72127265125157 L 300 66.72127265125127 L 310 66.72127265125137 L 320 66.72127265125147 L 330 66.72127265125155 L 340 66.72127265125164 L 350 66.72127265125135 L 360 66.72127265125144 L 370 66.72127265125154 L 380 66.72127265125124 L 390 66.72127265125134 L 400 66.72127265125144 L 410 66.72127265125114 L 420 66.72127265125161 L 430 66.72127265125133 L 440 66.72127265125104 L 450 66.72127265125151 L 460 66.72127265125121 L 470 66.7212726512517 L 480 66.72127265125141 L 490 66.72127265125113" stroke="rgb(217,125,129)" stroke-width="2" /><path d="M 0 442.30441568279895 L 0 444.96755657659656 L 10 444.96755657659656 L 20 444.96755657659656 L 30 444.9675565765967 L 40 444.9675565765967 L 50 444.9675565765965 L 60 444.9675565765965 L 70 444.96755657659656 L 80 444.96755657659656 L 90 444.96755657659656 L 100 444.96755657659696 L 110 444.9675565765973 L 120 444.96755657659696 L 130 444.9675565765966 L 140 444.96755657659696 L 150 444.96755657659736 L 160 444.967556576597 L 170 444.9675565765967 L 180 444.967556576597 L 190 444.9675565765974 L 200 444.96755657659634 L 210 444.967556576596 L 220 444.9675565765971 L 230 444.96755657659673 L 240 444.9675565765964 L 250 444.96755657659605 L 260 444.9675565765957 L 270 444.9675565765968 L 280 444.96755657659645 L 290 444.9675565765961 L 300 444.9675565765972 L 310 444.96755657659685 L 320 444.9675565765965 L 330 444.96755657659617 L 340 444.9675565765958 L 350 444.9675565765969 L 360 444.96755657659656 L 370 444.9675565765962 L 380 444.9675565765973 L 390 444.96755657659696 L 400 444.96755657659656 L 410 444.96755657659907 L 420 444.9675565765973 L 430 444.9675565765984 L 440 444.96755657659946 L 450 444.9675565765977 L 460 444.9675565765988 L 470 444.967556576597 L 480 444.9675565765981 L 490 444.9675565765992" stroke="rgb(45,125,237)" stroke-width="2" /><path d="M 0 108.52116373282944 L 0 84.77855904952486 L 10 84.77855904952483 L 20 84.77855904952484 L 30 84.77855904952486 L 40 84.77855904952487 L 50 84.77855904952503 L 60 84.77855904952504 L 70 84.77855904952506 L 80 84.77855904952507 L 90 84.77855904952509 L 100 84.77855904952477 L 110 84.7785590495251 L 120 84.7785590495248 L 130 84.77855904952449 L 140 84.77855904952483 L 150 84.77855904952514 L 160 84.77855904952484 L 170 84.77855904952455 L 180 84.77855904952486 L 190 84.77855904952519 L 200 84.77855904952489 L 210 84.77855904952459 L 220 84.77855904952554 L 230 84.77855904952523 L 240 84.77855904952493 L 250 84.77855904952463 L 260 84.77855904952432 L 270 84.77855904952527 L 280 84.77855904952497 L 290 84.77855904952467 L 300 84.77855904952563 L 310 84.77855904952531 L 320 84.77855904952501 L 330 84.77855904952472 L 340 84.7785590495244 L 350 84.77855904952536 L 360 84.77855904952506 L 370 84.77855904952476 L 380 84.77855904952571 L 390 84.7785590495254 L 400 84.7785590495251 L 410 84.77855904952605 L 420 84.77855904952449 L 430 84.77855904952546 L 440 84.7785590495264 L 450 84.77855904952484 L 460 84.7785590495258 L 470 84.77855904952423 L 480 84.77855904952519 L 490 84.77855904952614" stroke="rgb(176,55,213)" stroke-width="2" /><path d="M 0 447.741396796401 L 0 406.189666217731 L 10 406.18966621773103 L 20 406.18966621773103 L 30 406.18966621773103 L 40 406.18966621773103 L 50 406.18966621773103 L 60 406.18966621773103 L 70 406.18966621773103 L 80 406.1896662177311 L 90 406.1896662177311 L 100 406.18966621773086 L 110 406.1896662177311 L 120 406.18966621773086 L 130 406.1896662177307 L 140 406.1896662177309 L 150 406.1896662177311 L 160 406.1896662177309 L 170 406.18966621773075 L 180 406.1896662177309 L 190 406.18966621773114 L 200 406.1896662177309 L 210 406.18966621773075 L 220 406.1896662177313 L 230 406.18966621773114 L 240 406.189666217731 L 250 406.18966621773075 L 260 406.1896662177306 L 270 406.1896662177312 L 280 406.189666217731 L 290 406.1896662177308 L 300 406.1896662177314 L 310 406.1896662177312 L 320 406.18966621773103 L 330 406.18966621773086 L 340 406.18966621773063 L 350 406.18966621773126 L 360 406.18966621773103 L 370 406.18966621773086 L 380 406.1896662177314 L 390 406.18966621773126 L 400 406.1896662177311 L 410 406.18966621773166 L 420 406.1896662177307 L 430 406.1896662177313 L 440 406.1896662177319 L 450 406.1896662177309 L 460 406.18966621773154 L 470 406.1896662177305 L 480 406.18966621773114 L 490 406.1896662177317" stroke="rgb(170,254,225)" stroke-width="2" /><path d="M 0 474.4710626183579 L 0 476.4443507601548 L 10 476.4443507601548 L 20 476.44435076015475 L 30 476.4443507601548 L 40 476.4443507601548 L 50 476.4443507601548 L 60 476.4443507601546 L 70 476.4443507601546 L 80 476.4443507601546 L 90 476.4443507601546 L 100 476.4443507601545 L 110 476.4443507601545 L 120 476.44435076015486 L 130 476.4443507601552 L 140 476.44435076015486 L 150 476.44435076015446 L 160 476.4443507601548 L 170 476.44435076015515 L 180 476.4443507601548 L 190 476.4443507601544 L 200 476.44435076015475 L 210 476.44435076015515 L 220 476.44435076015407 L 230 476.4443507601544 L 240 476.44435076015475 L 250 476.4443507601551 L 260 476.44435076015543 L 270 476.44435076015435 L 280 476.4443507601547 L 290 476.44435076015503 L 300 476.44435076015395 L 310 476.4443507601543 L 320 476.44435076015463 L 330 476.444350760155 L 340 476.4443507601553 L 350 476.44435076015424 L 360 476.4443507601546 L 370 476.4443507601549 L 380 476.44435076015384 L 390 476.4443507601542 L 400 476.4443507601545 L 410 476.444350760152 L 420 476.4443507601538 L 430 476.4443507601527 L 440 476.4443507601516 L 450 476.4443507601534 L 460 476.4443507601523 L 470 476.44435076015407 L 480 476.444350760153 L 490 476.44435076015196" stroke="rgb(55,26,229)" stroke-width="2" /><path d="M 0 400.68853636205625 L 0 363.9698099961305 L 10 363.96980999613044 L 20 363.96980999613044 L 30 363.96980999613044 L 40 363.9698099961304 L 50 363.9698099961304 L 60 363.9698099961304 L 70 363.9698099961304 L 80 363.9698099961304 L 90 363.9698099961304 L 100 363.9698099961304 L 110 363.9698099961301 L 120 363.9698099961303 L 130 363.96980999613055 L 140 363.9698099961303 L 150 363.96980999613004 L 160 363.9698099961303 L 170 363.96980999613055 L 180 363.96980999613027 L 190 363.96980999613004 L 200 363.96980999613027 L 210 363.9698099961305 L 220 363.96980999612975 L 230 363.96980999613 L 240 363.96980999613027 L 250 363.9698099961305 L 260 363.9698099961307 L 270 363.96980999613 L 280 363.9698099961302 L 290 363.96980999613044 L 300 363.9698099961297 L 310 363.9698099961299 L 320 363.96980999613015 L 330 363.9698099961304 L 340 363.9698099961306 L 350 363.9698099961299 L 360 363.96980999613015 L 370 363.9698099961304 L 380 363.96980999612964 L 390 363.96980999612987 L 400 363.9698099961301 L 410 363.96980999612936 L 420 363.96980999613055 L 430 363.9698099961298 L 440 363.96980999612913 L 450 363.9698099961303 L 460 363.9698099961296 L 470 363.9698099961308 L 480 363.96980999613004 L 490 363.9698099961293" stroke="rgb(174,134,139)" stroke-width="2" /><path d="M 0 128.30127992576905 L 0 78.32639803039038 L 10 78.32639803039038 L 20 78.32639803039038 L 30 78.32639803039038 L 40 78.32639803039038 L 50 78.32639803039038 L 60 78.32639803039038 L 70 78.32639803039038 L 80 78.32639803039038 L 90 78.32639803039038 L 100 78.32639803039038 L 110 78.32639803039035 L 120 78.32639803039035 L 130 78.32639803039038 L 140 78.32639803039038 L 150 78.32639803039035 L 160 78.32639803039035 L 170 78.32639803039038 L 180 78.32639803039038 L 190 78.32639803039035 L 200 78.32639803039035 L 210 78.32639803039038 L 220 78.32639803039034 L 230 78.32639803039035 L 240 78.32639803039035 L 250 78.32639803039037 L 260 78.32639803039038 L 270 78.32639803039035 L 280 78.32639803039035 L 290 78.32639803039037 L 300 78.32639803039032 L 310 78.32639803039035 L 320 78.32639803039035 L 330 78.32639803039037 L 340 78.32639803039038 L 350 78.32639803039035 L 360 78.32639803039035 L 370 78.32639803039037 L 380 78.32639803039032 L 390 78.32639803039034 L 400 78.32639803039041 L 410 78.32639803039035 L 420 78.32639803039041 L 430 78.32639803039038 L 440 78.32639803039035 L 450 78.32639803039041 L 460 78.32639803039038 L 470 78.32639803039044 L 480 78.3263980303904 L 490 78.32639803039035" stroke="rgb(65,251,60)" stroke-width="2" /><path d="M 0 6.273119711472875 L 0 2.261540430514624 L 10 2.26154043051468 L 20 2.2615404305146924 L 30 2.261540430514705 L 40 2.2615404305147164 L 50 2.261540430514729 L 60 2.2615404305147413 L 70 2.2615404305147537 L 80 2.261540430514766 L 90 2.2615404305147777 L 100 2.26154043051479 L 110 2.261540430515157 L 120 2.261540430514815 L 130 2.261540430514472 L 140 2.261540430514839 L 150 2.261540430515205 L 160 2.261540430514863 L 170 2.261540430514522 L 180 2.261540430514888 L 190 2.2615404305152538 L 200 2.261540430514204 L 210 2.261540430513862 L 220 2.2615404305149367 L 230 2.2615404305145947 L 240 2.261540430514253 L 250 2.261540430513911 L 260 2.261540430513569 L 270 2.2615404305146436 L 280 2.2615404305143016 L 290 2.2615404305139597 L 300 2.2615404305150344 L 310 2.2615404305146924 L 320 2.2615404305143505 L 330 2.2615404305140085 L 340 2.2615404305136666 L 350 2.2615404305147413 L 360 2.2615404305143993 L 370 2.2615404305140574 L 380 2.261540430515132 L 390 2.26154043051479 L 400 2.261540430514448 L 410 2.261540430515522 L 420 2.2615404305137643 L 430 2.261540430514839 L 440 2.2615404305159137 L 450 2.261540430514155 L 460 2.26154043051523 L 470 2.261540430513471 L 480 2.261540430514546 L 490 2.2615404305156206" stroke="rgb(242,68,116)" stroke-width="2" /><path d="M 0 12.83514821655729 L 0 -29.145922905219326 L 10 -29.145922905219333 L 20 -29.14592290521934 L 30 -29.145922905219347 L 40 -29.145922905219354 L 50 -29.145922905219262 L 60 -29.14592290521946 L 70 -29.145922905219276 L 80 -29.145922905219475 L 90 -29.14592290521929 L 100 -29.14592290521949 L 110 -29.145922905219688 L 120 -29.145922905219503 L 130 -29.14592290521931 L 140 -29.14592290521951 L 150 -29.145922905219717 L 160 -29.145922905219532 L 170 -29.14592290521934 L 180 -29.14592290521954 L 190 -29.145922905219738 L 200 -29.14592290521917 L 210 -29.145922905218978 L 220 -29.145922905219567 L 230 -29.145922905219383 L 240 -29.145922905219198 L 250 -29.145922905219006 L 260 -29.14592290521882 L 270 -29.14592290521941 L 280 -29.145922905219226 L 290 -29.145922905219035 L 300 -29.145922905219617 L 310 -29.145922905219432 L 320 -29.145922905219255 L 330 -29.145922905219063 L 340 -29.145922905218878 L 350 -29.14592290521946 L 360 -29.145922905219276 L 370 -29.14592290521909 L 380 -29.145922905219674 L 390 -29.14592290521949 L 400 -29.145922905219305 L 410 -29.145922905219887 L 420 -29.145922905218928 L 430 -29.14592290521951 L 440 -29.1459229052201 L 450 -29.14592290521914 L 460 -29.14592290521973 L 470 -29.14592290521877 L 480 -29.14592290521936 L 490 -29.145922905219944" stroke="rgb(56,107,198)" stroke-width="2" /><path d="M 0 369.64620201033864 L 0 409.833929130984 L 10 409.83392913098396 L 20 409.833929130984 L 30 409.8339291309841 L 40 409.8339291309841 L 50 409.8339291309841 L 60 409.8339291309841 L 70 409.8339291309841 L 80 409.8339291309841 L 90 409.83392913098413 L 100 409.83392913098413 L 110 409.8339291309843 L 120 409.83392913098413 L 130 409.8339291309839 L 140 409.83392913098413 L 150 409.83392913098436 L 160 409.8339291309842 L 170 409.83392913098396 L 180 409.8339291309842 L 190 409.8339291309844 L 200 409.8339291309842 L 210 409.83392913098356 L 220 409.8339291309842 L 230 409.833929130984 L 240 409.8339291309838 L 250 409.83392913098356 L 260 409.8339291309834 L 270 409.833929130984 L 280 409.83392913098385 L 290 409.8339291309836 L 300 409.83392913098425 L 310 409.8339291309841 L 320 409.83392913098385 L 330 409.8339291309836 L 340 409.83392913098345 L 350 409.8339291309841 L 360 409.8339291309839 L 370 409.8339291309837 L 380 409.8339291309843 L 390 409.83392913098413 L 400 409.8339291309839 L 410 409.8339291309854 L 420 409.83392913098436 L 430 409.833929130985 L 440 409.8339291309856 L 450 409.8339291309846 L 460 409.8339291309852 L 470 409.8339291309842 L 480 409.8339291309848 L 490 409.83392913098544" stroke="rgb(153,34,112)" stroke-width="2" /><path d="M 0 285.06548952225756 L 0 314.254742101853 L 10 314.254742101853 L 20 314.2547421018531 L 30 314.2547421018531 L 40 314.2547421018531 L 50 314.2547421018529 L 60 314.25474210185297 L 70 314.25474210185297 L 80 314.25474210185297 L 90 314.25474210185297 L 100 314.25474210185297 L 110 314.2547421018533 L 120 314.254742101853 L 130 314.25474210185274 L 140 314.254742101853 L 150 314.2547421018533 L 160 314.254742101853 L 170 314.2547421018528 L 180 314.2547421018531 L 190 314.25474210185337 L 200 314.25474210185365 L 210 314.25474210185337 L 220 314.2547421018543 L 230 314.254742101854 L 240 314.2547421018537 L 250 314.2547421018534 L 260 314.25474210185314 L 270 314.25474210185405 L 280 314.25474210185376 L 290 314.2547421018535 L 300 314.25474210185433 L 310 314.25474210185405 L 320 314.25474210185376 L 330 314.2547421018535 L 340 314.25474210185325 L 350 314.2547421018541 L 360 314.2547421018538 L 370 314.25474210185354 L 380 314.25474210185445 L 390 314.25474210185416 L 400 314.2547421018539 L 410 314.2547421018536 L 420 314.2547421018522 L 430 314.254742101853 L 440 314.25474210185394 L 450 314.25474210185246 L 460 314.25474210185337 L 470 314.2547421018519 L 480 314.2547421018528 L 490 314.25474210185365" stroke="rgb(41,107,176)" stroke-width="2" /><path d="M 0 377.0515629141601 L 0 426.55334863821787 L 10 426.55334863821787 L 20 426.55334863821787 L 30 426.55334863821787 L 40 426.5533486382179 L 50 426.5533486382179 L 60 426.5533486382179 L 70 426.5533486382179 L 80 426.5533486382179 L 90 426.5533486382179 L 100 426.5533486382179 L 110 426.553348638218 L 120 426.5533486382179 L 130 426.55334863821787 L 140 426.5533486382179 L 150 426.553348638218 L 160 426.5533486382179 L 170 426.55334863821787 L 180 426.5533486382179 L 190 426.553348638218 L 200 426.5533486382179 L 210 426.553348638218 L 220 426.55334863821815 L 230 426.5533486382181 L 240 426.55334863821804 L 250 426.553348638218 L 260 426.5533486382179 L 270 426.5533486382181 L 280 426.55334863821804 L 290 426.553348638218 L 300 426.55334863821815 L 310 426.5533486382181 L 320 426.55334863821804 L 330 426.553348638218 L 340 426.5533486382179 L 350 426.5533486382181 L 360 426.55334863821804 L 370 426.553348638218 L 380 426.55334863821815 L 390 426.5533486382181 L 400 426.55334863821804 L 410 426.5533486382182 L 420 426.553348638218 L 430 426.5533486382181 L 440 426.55334863821827 L 450 426.55334863821804 L 460 426.55334863821815 L 470 426.5533486382179 L 480 426.55334863821804 L 490 426.5533486382182" stroke="rgb(174,117,231)" stroke-width="2" /><path d="M 0 86.36194092286232 L 0 40.268691986754654 L 10 40.26869198675465 L 20 40.26869198675465 L 30 40.26869198675464 L 40 40.26869198675463 L 50 40.2686919867547 L 60 40.268691986754554 L 70 40.26869198675469 L 80 40.26869198675455 L 90 40.268691986754675 L 100 40.26869198675454 L 110 40.2686919867544 L 120 40.268691986754526 L 130 40.26869198675466 L 140 40.26869198675452 L 150 40.268691986754376 L 160 40.26869198675451 L 170 40.26869198675465 L 180 40.2686919867545 L 190 40.268691986754355 L 200 40.26869198675477 L 210 40.2686919867549 L 220 40.268691986754476 L 230 40.26869198675461 L 240 40.268691986754746 L 250 40.26869198675488 L 260 40.26869198675501 L 270 40.2686919867546 L 280 40.268691986754725 L 290 40.26869198675486 L 300 40.26869198675445 L 310 40.268691986754575 L 320 40.2686919867547 L 330 40.268691986754845 L 340 40.26869198675497 L 350 40.268691986754554 L 360 40.26869198675469 L 370 40.268691986754824 L 380 40.268691986754405 L 390 40.26869198675454 L 400 40.268691986754675 L 410 40.26869198675425 L 420 40.26869198675494 L 430 40.26869198675452 L 440 40.2686919867541 L 450 40.26869198675478 L 460 40.26869198675437 L 470 40.26869198675505 L 480 40.26869198675463 L 490 40.26869198675422" stroke="rgb(162,232,60)" stroke-width="2" /><path d="M 0 450.9877778298982 L 0 498.20967413252566 L 10 498.20967413252566 L 20 498.20967413252566 L 30 498.20967413252566 L 40 498.20967413252566 L 50 498.2096741325256 L 60 498.2096741325256 L 70 498.2096741325256 L 80 498.2096741325256 L 90 498.2096741325256 L 100 498.2096741325257 L 110 498.2096741325259 L 120 498.2096741325258 L 130 498.20967413252566 L 140 498.2096741325258 L 150 498.2096741325259 L 160 498.2096741325258 L 170 498.20967413252566 L 180 498.2096741325258 L 190 498.2096741325259 L 200 498.2096741325258 L 210 498.20967413252544 L 220 498.2096741325258 L 230 498.20967413252566 L 240 498.20967413252555 L 250 498.2096741325255 L 260 498.2096741325253 L 270 498.2096741325257 L 280 498.2096741325256 L 290 498.2096741325255 L 300 498.20967413252583 L 310 498.2096741325257 L 320 498.2096741325256 L 330 498.2096741325255 L 340 498.2096741325254 L 350 498.2096741325257 L 360 498.2096741325256 L 370 498.2096741325255 L 380 498.20967413252583 L 390 498.2096741325257 L 400 498.2096741325256 L 410 498.20967413252646 L 420 498.2096741325259 L 430 498.20967413252623 L 440 498.2096741325266 L 450 498.209674132526 L 460 498.20967413252635 L 470 498.2096741325258 L 480 498.2096741325261 L 490 498.2096741325265" stroke="rgb(134,195,178)" stroke-width="2" /><path d="M 0 43.16071337481036 L 0 91.80363369992702 L 10 91.80363369992702 L 20 91.80363369992702 L 30 91.80363369992702 L 40 91.80363369992702 L 50 91.80363369992702 L 60 91.80363369992702 L 70 91.803633699927 L 80 91.803633699927 L 90 91.80363369992699 L 100 91.80363369992699 L 110 91.8036336999269 L 120 91.80363369992699 L 130 91.80363369992708 L 140 91.80363369992699 L 150 91.8036336999269 L 160 91.80363369992699 L 170 91.80363369992706 L 180 91.80363369992698 L 190 91.80363369992688 L 200 91.80363369992696 L 210 91.80363369992705 L 220 91.80363369992679 L 230 91.80363369992688 L 240 91.80363369992696 L 250 91.80363369992703 L 260 91.8036336999271 L 270 91.80363369992686 L 280 91.80363369992695 L 290 91.80363369992702 L 300 91.80363369992678 L 310 91.80363369992685 L 320 91.80363369992693 L 330 91.80363369992702 L 340 91.80363369992709 L 350 91.80363369992685 L 360 91.80363369992693 L 370 91.803633699927 L 380 91.80363369992676 L 390 91.80363369992683 L 400 91.8036336999269 L 410 91.80363369992666 L 420 91.80363369992708 L 430 91.80363369992682 L 440 91.80363369992656 L 450 91.80363369992699 L 460 91.80363369992673 L 470 91.80363369992713 L 480 91.80363369992688 L 490 91.80363369992664" stroke="rgb(18,106,149)" stroke-width="2" /><path d="M 0 398.72651269090875 L 0 387.30280523715885 L 10 387.3028052371589 L 20 387.3028052371589 L 30 387.3028052371589 L 40 387.30280523715896 L 50 387.3028052371588 L 60 387.3028052371588 L 70 387.3028052371588 L 80 387.3028052371588 L 90 387.30280523715885 L 100 387.30280523715885 L 110 387.3028052371592 L 120 387.30280523715885 L 130 387.3028052371585 L 140 387.3028052371589 L 150 387.30280523715925 L 160 387.3028052371589 L 170 387.30280523715857 L 180 387.3028052371589 L 190 387.3028052371593 L 200 387.30280523715896 L 210 387.3028052371586 L 220 387.30280523715965 L 230 387.30280523715936 L 240 387.302805237159 L 250 387.3028052371587 L 260 387.30280523715834 L 270 387.30280523715936 L 280 387.3028052371591 L 290 387.30280523715874 L 300 387.30280523715976 L 310 387.3028052371594 L 320 387.3028052371591 L 330 387.30280523715874 L 340 387.30280523715845 L 350 387.3028052371595 L 360 387.30280523715913 L 370 387.3028052371588 L 380 387.3028052371599 L 390 387.30280523715953 L 400 387.3028052371592 L 410 387.30280523716164 L 420 387.30280523715993 L 430 387.30280523716095 L 440 387.30280523716203 L 450 387.30280523716027 L 460 387.30280523716135 L 470 387.30280523715965 L 480 387.30280523716067 L 490 387.3028052371617" stroke="rgb(215,46,91)" stroke-width="2" /><path d="M 0 291.6581539593665 L 0 328.98163348003845 L 10 328.98163348003845 L 20 328.98163348003845 L 30 328.98163348003845 L 40 328.98163348003845 L 50 328.9816334800385 L 60 328.9816334800385 L 70 328.9816334800385 L 80 328.9816334800385 L 90 328.9816334800385 L 100 328.9816334800385 L 110 328.9816334800388 L 120 328.98163348003857 L 130 328.98163348003834 L 140 328.98163348003857 L 150 328.9816334800388 L 160 328.98163348003857 L 170 328.98163348003834 L 180 328.98163348003857 L 190 328.98163348003885 L 200 328.9816334800386 L 210 328.9816334800379 L 220 328.9816334800386 L 230 328.98163348003936 L 240 328.98163348003817 L 250 328.9816334800389 L 260 328.9816334800377 L 270 328.98163348003845 L 280 328.98163348003914 L 290 328.981633480038 L 300 328.9816334800387 L 310 328.9816334800394 L 320 328.9816334800382 L 330 328.98163348003897 L 340 328.9816334800378 L 350 328.9816334800385 L 360 328.9816334800392 L 370 328.98163348003806 L 380 328.98163348003874 L 390 328.9816334800395 L 400 328.9816334800383 L 410 328.981633480039 L 420 328.98163348003783 L 430 328.98163348003857 L 440 328.98163348003925 L 450 328.9816334800381 L 460 328.9816334800388 L 470 328.98163348003766 L 480 328.98163348003834 L 490 328.9816334800391" stroke="rgb(166,244,178)" stroke-width="2" /><path d="M 0 163.77156526730002 L 0 142.69222928745535 L 10 142.6922292874554 L 20 142.69222928745543 L 30 142.69222928745543 L 40 142.69222928745543 L 50 142.6922292874553 L 60 142.6922292874553 L 70 142.69222928745532 L 80 142.69222928745532 L 90 142.69222928745535 L 100 142.6922292874557 L 110 142.692229287456 L 120 142.6922292874557 L 130 142.69222928745538 L 140 142.69222928745572 L 150 142.69222928745606 L 160 142.69222928745575 L 170 142.69222928745543 L 180 142.69222928745577 L 190 142.6922292874561 L 200 142.69222928745577 L 210 142.69222928745546 L 220 142.69222928745646 L 230 142.69222928745614 L 240 142.69222928745583 L 250 142.69222928745552 L 260 142.6922292874552 L 270 142.69222928745617 L 280 142.69222928745586 L 290 142.69222928745558 L 300 142.69222928745654 L 310 142.69222928745623 L 320 142.69222928745592 L 330 142.6922292874556 L 340 142.6922292874553 L 350 142.69222928745626 L 360 142.69222928745597 L 370 142.69222928745566 L 380 142.69222928745663 L 390 142.6922292874563 L 400 142.692229287456 L 410 142.6922292874557 L 420 142.6922292874541 L 430 142.69222928745506 L 440 142.69222928745606 L 450 142.69222928745444 L 460 142.69222928745543 L 470 142.6922292874538 L 480 142.6922292874548 L 490 142.69222928745577" stroke="rgb(68,157,120)" stroke-width="2" /><path d="M 0 464.91061121472103 L 0 416.2961013142809 L 10 416.2961013142809 L 20 416.2961013142809 L 30 416.2961013142809 L 40 416.2961013142809 L 50 416.29610131428086 L 60 416.29610131428086 L 70 416.29610131428086 L 80 416.29610131428086 L 90 416.29610131428086 L 100 416.29610131428086 L 110 416.29610131428075 L 120 416.29610131428086 L 130 416.2961013142809 L 140 416.2961013142808 L 150 416.29610131428075 L 160 416.2961013142808 L 170 416.2961013142809 L 180 416.2961013142808 L 190 416.29610131428075 L 200 416.296101314281 L 210 416.2961013142811 L 220 416.2961013142808 L 230 416.2961013142809 L 240 416.296101314281 L 250 416.29610131428103 L 260 416.29610131428115 L 270 416.29610131428086 L 280 416.296101314281 L 290 416.29610131428103 L 300 416.2961013142808 L 310 416.29610131428086 L 320 416.296101314281 L 330 416.29610131428103 L 340 416.2961013142811 L 350 416.29610131428086 L 360 416.2961013142809 L 370 416.29610131428103 L 380 416.29610131428075 L 390 416.29610131428086 L 400 416.2961013142806 L 410 416.29610131428035 L 420 416.29610131428075 L 430 416.2961013142805 L 440 416.29610131428024 L 450 416.2961013142807 L 460 416.2961013142804 L 470 416.2961013142808 L 480 416.2961013142806 L 490 416.29610131428035" stroke="rgb(64,71,245)" stroke-width="2" /><path d="M 0 299.60956981572053 L 0 302.24314705939753 L 10 302.24314705939753 L 20 302.24314705939753 L 30 302.24314705939753 L 40 302.24314705939753 L 50 302.24314705939753 L 60 302.2431470593973 L 70 302.2431470593973 L 80 302.2431470593973 L 90 302.2431470593973 L 100 302.24314705939724 L 110 302.2431470593969 L 120 302.24314705939724 L 130 302.2431470593976 L 140 302.24314705939724 L 150 302.24314705939685 L 160 302.2431470593972 L 170 302.24314705939753 L 180 302.2431470593972 L 190 302.2431470593968 L 200 302.24314705939713 L 210 302.2431470593975 L 220 302.2431470593964 L 230 302.24314705939673 L 240 302.2431470593971 L 250 302.2431470593974 L 260 302.24314705939776 L 270 302.24314705939673 L 280 302.2431470593971 L 290 302.2431470593974 L 300 302.24314705939634 L 310 302.2431470593967 L 320 302.243147059397 L 330 302.24314705939736 L 340 302.2431470593977 L 350 302.2431470593966 L 360 302.24314705939696 L 370 302.2431470593973 L 380 302.2431470593962 L 390 302.24314705939656 L 400 302.2431470593969 L 410 302.24314705939724 L 420 302.243147059399 L 430 302.2431470593979 L 440 302.24314705939685 L 450 302.2431470593986 L 460 302.24314705939753 L 470 302.2431470593993 L 480 302.2431470593982 L 490 302.24314705939713" stroke="rgb(222,12,192)" stroke-width="2" /><path d="M 0 429.65592481013476 L 0 379.68298573716595 L 10 379.68298573716595 L 20 379.68298573716595 L 30 379.68298573716595 L 40 379.68298573716595 L 50 379.68298573716595 L 60 379.68298573716595 L 70 379.68298573716595 L 80 379.68298573716595 L 90 379.68298573716595 L 100 379.68298573716595 L 110 379.68298573716595 L 120 379.68298573716595 L 130 379.68298573716595 L 140 379.68298573716595 L 150 379.68298573716595 L 160 379.68298573716595 L 170 379.68298573716595 L 180 379.68298573716595 L 190 379.68298573716595 L 200 379.68298573716595 L 210 379.68298573716595 L 220 379.6829857371659 L 230 379.68298573716595 L 240 379.68298573716595 L 250 379.68298573716595 L 260 379.68298573716595 L 270 379.68298573716595 L 280 379.68298573716595 L 290 379.68298573716595 L 300 379.6829857371659 L 310 379.68298573716595 L 320 379.68298573716595 L 330 379.68298573716595 L 340 379.68298573716595 L 350 379.68298573716595 L 360 379.68298573716595 L 370 379.68298573716595 L 380 379.6829857371659 L 390 379.68298573716595 L 400 379.6829857371659 L 410 379.68298573716584 L 420 379.682985737166 L 430 379.68298573716595 L 440 379.68298573716595 L 450 379.6829857371659 L 460 379.68298573716584 L 470 379.682985737166 L 480 379.68298573716595 L 490 379.68298573716595" stroke="rgb(89,188,186)" stroke-width="2" /><path d="M 0 435.2652995673434 L 0 386.17237626625837 L 10 386.17237626625837 L 20 386.17237626625837 L 30 386.17237626625837 L 40 386.17237626625837 L 50 386.17237626625837 L 60 386.17237626625837 L 70 386.17237626625837 L 80 386.17237626625837 L 90 386.17237626625837 L 100 386.1723762662583 L 110 386.17237626625837 L 120 386.1723762662583 L 130 386.17237626625825 L 140 386.1723762662583 L 150 386.1723762662584 L 160 386.1723762662583 L 170 386.17237626625825 L 180 386.1723762662583 L 190 386.1723762662584 L 200 386.17237626625837 L 210 386.17237626625825 L 220 386.1723762662585 L 230 386.1723762662584 L 240 386.17237626625837 L 250 386.1723762662583 L 260 386.1723762662582 L 270 386.1723762662584 L 280 386.17237626625837 L 290 386.1723762662583 L 300 386.1723762662585 L 310 386.1723762662584 L 320 386.17237626625837 L 330 386.1723762662583 L 340 386.17237626625825 L 350 386.1723762662584 L 360 386.17237626625837 L 370 386.1723762662583 L 380 386.17237626625854 L 390 386.1723762662584 L 400 386.17237626625837 L 410 386.1723762662589 L 420 386.17237626625854 L 430 386.17237626625877 L 440 386.17237626625894 L 450 386.1723762662586 L 460 386.1723762662588 L 470 386.1723762662585 L 480 386.17237626625865 L 490 386.1723762662589" stroke="rgb(4,88,76)" stroke-width="2" /><path d="M 0 492.1532367464828 L 0 442.1935143165645 L 10 442.1935143165645 L 20 442.1935143165645 L 30 442.1935143165645 L 40 442.1935143165645 L 50 442.1935143165645 L 60 442.1935143165645 L 70 442.1935143165645 L 80 442.1935143165645 L 90 442.1935143165645 L 100 442.1935143165645 L 110 442.1935143165645 L 120 442.1935143165645 L 130 442.19351431656446 L 140 442.1935143165645 L 150 442.1935143165645 L 160 442.1935143165645 L 170 442.19351431656446 L 180 442.1935143165645 L 190 442.1935143165645 L 200 442.19351431656446 L 210 442.19351431656446 L 220 442.1935143165645 L 230 442.1935143165645 L 240 442.19351431656446 L 250 442.19351431656446 L 260 442.19351431656446 L 270 442.1935143165645 L 280 442.19351431656446 L 290 442.19351431656446 L 300 442.1935143165645 L 310 442.1935143165645 L 320 442.19351431656446 L 330 442.19351431656446 L 340 442.19351431656446 L 350 442.1935143165645 L 360 442.19351431656446 L 370 442.19351431656446 L 380 442.1935143165645 L 390 442.1935143165645 L 400 442.19351431656446 L 410 442.1935143165645 L 420 442.19351431656446 L 430 442.1935143165645 L 440 442.1935143165646 L 450 442.19351431656446 L 460 442.1935143165645 L 470 442.19351431656446 L 480 442.1935143165645 L 490 442.1935143165645" stroke="rgb(180,159,207)" stroke-width="2" /><path d="M 0 491.2942278230386 L 0 441.3043522725252 L 10 441.3043522725252 L 20 441.3043522725252 L 30 441.3043522725252 L 40 441.3043522725252 L 50 441.3043522725252 L 60 441.3043522725252 L 70 441.3043522725252 L 80 441.3043522725252 L 90 441.3043522725252 L 100 441.3043522725252 L 110 441.30435227252514 L 120 441.3043522725252 L 130 441.3043522725252 L 140 441.3043522725252 L 150 441.30435227252514 L 160 441.3043522725252 L 170 441.3043522725252 L 180 441.3043522725252 L 190 441.30435227252514 L 200 441.3043522725252 L 210 441.3043522725252 L 220 441.30435227252514 L 230 441.30435227252514 L 240 441.3043522725252 L 250 441.3043522725252 L 260 441.3043522725252 L 270 441.30435227252514 L 280 441.3043522725252 L 290 441.3043522725252 L 300 441.30435227252514 L 310 441.30435227252514 L 320 441.3043522725252 L 330 441.3043522725252 L 340 441.3043522725252 L 350 441.30435227252514 L 360 441.30435227252514 L 370 441.3043522725252 L 380 441.30435227252514 L 390 441.30435227252514 L 400 441.3043522725252 L 410 441.3043522725252 L 420 441.3043522725252 L 430 441.3043522725252 L 440 441.30435227252514 L 450 441.3043522725252 L 460 441.3043522725252 L 470 441.3043522725252 L 480 441.3043522725252 L 490 441.3043522725252" stroke="rgb(67,5,191)" stroke-width="2" /><path d="M 0 29.8266192480241 L 0 -3.4077432655885787 L 10 -3.4077432655885858 L 20 -3.407743265588593 L 30 -3.4077432655886 L 40 -3.407743265588614 L 50 -3.4077432655884934 L 60 -3.4077432655887634 L 70 -3.4077432655885076 L 80 -3.4077432655887847 L 90 -3.407743265588522 L 100 -3.407743265588799 L 110 -3.407743265589076 L 120 -3.4077432655888202 L 130 -3.4077432655885644 L 140 -3.4077432655888344 L 150 -3.4077432655891116 L 160 -3.4077432655888558 L 170 -3.4077432655886 L 180 -3.40774326558887 L 190 -3.407743265589147 L 200 -3.4077432655888913 L 210 -3.4077432655886355 L 220 -3.4077432655894384 L 230 -3.4077432655891826 L 240 -3.407743265588927 L 250 -3.407743265588671 L 260 -3.4077432655884152 L 270 -3.4077432655892252 L 280 -3.4077432655889695 L 290 -3.4077432655887137 L 300 -3.4077432655895095 L 310 -3.4077432655892537 L 320 -3.407743265588998 L 330 -3.407743265588749 L 340 -3.4077432655884934 L 350 -3.4077432655892963 L 360 -3.4077432655890405 L 370 -3.4077432655887847 L 380 -3.4077432655895876 L 390 -3.407743265589332 L 400 -3.40774326558801 L 410 -3.4077432655888202 L 420 -3.4077432655874986 L 430 -3.4077432655883086 L 440 -3.4077432655891116 L 450 -3.40774326558779 L 460 -3.4077432655886 L 470 -3.4077432655872784 L 480 -3.4077432655880884 L 490 -3.4077432655888913" stroke="rgb(203,37,166)" stroke-width="2" /><path d="M 0 246.24548744559982 L 0 245.9825243670782 L 10 245.9825243670782 L 20 245.9825243670782 L 30 245.98252436707818 L 40 245.98252436707818 L 50 245.98252436707816 L 60 245.98252436707816 L 70 245.98252436707813 L 80 245.98252436707813 L 90 245.98252436707813 L 100 245.98252436707776 L 110 245.9825243670781 L 120 245.98252436707844 L 130 245.98252436707878 L 140 245.9825243670777 L 150 245.98252436707804 L 160 245.98252436707838 L 170 245.98252436707872 L 180 245.98252436707764 L 190 245.98252436707799 L 200 245.98252436707833 L 210 245.98252436707867 L 220 245.9825243670776 L 230 245.98252436707793 L 240 245.9825243670783 L 250 245.98252436707864 L 260 245.98252436707898 L 270 245.9825243670779 L 280 245.98252436707824 L 290 245.98252436707858 L 300 245.9825243670775 L 310 245.98252436707784 L 320 245.98252436707818 L 330 245.98252436707853 L 340 245.98252436707887 L 350 245.9825243670778 L 360 245.98252436707813 L 370 245.98252436707847 L 380 245.98252436707742 L 390 245.98252436707776 L 400 245.98252436707668 L 410 245.9825243670756 L 420 245.98252436707736 L 430 245.98252436707628 L 440 245.9825243670752 L 450 245.98252436707696 L 460 245.98252436707588 L 470 245.98252436707764 L 480 245.98252436707656 L 490 245.98252436707548" stroke="rgb(126,67,62)" stroke-width="2" /><path d="M 0 276.18290785483435 L 0 232.0925024912369 L 10 232.09250249123693 L 20 232.09250249123693 L 30 232.09250249123693 L 40 232.09250249123693 L 50 232.09250249123704 L 60 232.09250249123687 L 70 232.09250249123704 L 80 232.09250249123687 L 90 232.09250249123704 L 100 232.09250249123687 L 110 232.09250249123704 L 120 232.0925024912369 L 130 232.09250249123673 L 140 232.0925024912369 L 150 232.0925024912371 L 160 232.09250249123693 L 170 232.09250249123676 L 180 232.09250249123693 L 190 232.0925024912371 L 200 232.09250249123727 L 210 232.0925024912371 L 220 232.0925024912376 L 230 232.09250249123747 L 240 232.0925024912373 L 250 232.09250249123713 L 260 232.09250249123698 L 270 232.0925024912375 L 280 232.09250249123733 L 290 232.09250249123716 L 300 232.09250249123767 L 310 232.0925024912375 L 320 232.09250249123735 L 330 232.09250249123718 L 340 232.09250249123704 L 350 232.09250249123752 L 360 232.09250249123738 L 370 232.0925024912372 L 380 232.09250249123772 L 390 232.09250249123755 L 400 232.09250249123738 L 410 232.0925024912379 L 420 232.09250249123707 L 430 232.09250249123758 L 440 232.0925024912381 L 450 232.09250249123727 L 460 232.09250249123778 L 470 232.09250249123693 L 480 232.09250249123744 L 490 232.09250249123795" stroke="rgb(123,38,21)" stroke-width="2" /><path d="M 0 272.4179639880895 L 0 322.2146531717739 L 10 322.2146531717739 L 20 322.2146531717739 L 30 322.2146531717739 L 40 322.2146531717739 L 50 322.2146531717739 L 60 322.2146531717739 L 70 322.2146531717739 L 80 322.2146531717739 L 90 322.2146531717739 L 100 322.2146531717739 L 110 322.2146531717739 L 120 322.2146531717739 L 130 322.2146531717738 L 140 322.2146531717739 L 150 322.2146531717739 L 160 322.2146531717739 L 170 322.2146531717738 L 180 322.2146531717739 L 190 322.2146531717739 L 200 322.2146531717739 L 210 322.2146531717739 L 220 322.214653171774 L 230 322.214653171774 L 240 322.21465317177393 L 250 322.2146531717739 L 260 322.2146531717739 L 270 322.214653171774 L 280 322.21465317177393 L 290 322.2146531717739 L 300 322.214653171774 L 310 322.214653171774 L 320 322.21465317177393 L 330 322.2146531717739 L 340 322.2146531717739 L 350 322.214653171774 L 360 322.21465317177393 L 370 322.21465317177393 L 380 322.214653171774 L 390 322.214653171774 L 400 322.21465317177393 L 410 322.21465317177405 L 420 322.2146531717739 L 430 322.214653171774 L 440 322.2146531717741 L 450 322.21465317177393 L 460 322.214653171774 L 470 322.2146531717739 L 480 322.21465317177393 L 490 322.21465317177405" stroke="rgb(220,217,115)" stroke-width="2" /><path d="M 0 90.1201496769095 L 0 84.63434147843327 L 10 84.63434147843326 L 20 84.63434147843327 L 30 84.63434147843329 L 40 84.6343414784333 L 50 84.63434147843331 L 60 84.63434147843331 L 70 84.63434147843333 L 80 84.63434147843334 L 90 84.63434147843336 L 100 84.63434147843373 L 110 84.63434147843408 L 120 84.63434147843374 L 130 84.6343414784334 L 140 84.63434147843377 L 150 84.63434147843414 L 160 84.6343414784338 L 170 84.63434147843346 L 180 84.63434147843383 L 190 84.63434147843418 L 200 84.63434147843314 L 210 84.6343414784328 L 220 84.63434147843387 L 230 84.63434147843353 L 240 84.63434147843319 L 250 84.63434147843284 L 260 84.6343414784325 L 270 84.63434147843357 L 280 84.63434147843323 L 290 84.63434147843289 L 300 84.63434147843397 L 310 84.63434147843363 L 320 84.63434147843329 L 330 84.63434147843294 L 340 84.6343414784326 L 350 84.63434147843367 L 360 84.63434147843333 L 370 84.63434147843299 L 380 84.63434147843407 L 390 84.63434147843373 L 400 84.63434147843338 L 410 84.63434147843586 L 420 84.63434147843411 L 430 84.63434147843518 L 440 84.63434147843626 L 450 84.6343414784345 L 460 84.63434147843557 L 470 84.63434147843383 L 480 84.63434147843489 L 490 84.63434147843596" stroke="rgb(67,73,120)" stroke-width="2" /><path d="M 0 290.5704383202784 L 0 334.9142366276141 L 10 334.9142366276141 L 20 334.9142366276141 L 30 334.9142366276141 L 40 334.9142366276142 L 50 334.91423662761406 L 60 334.91423662761406 L 70 334.91423662761406 L 80 334.91423662761406 L 90 334.91423662761406 L 100 334.9142366276143 L 110 334.9142366276144 L 120 334.9142366276143 L 130 334.9142366276141 L 140 334.9142366276143 L 150 334.91423662761446 L 160 334.9142366276143 L 170 334.9142366276141 L 180 334.9142366276143 L 190 334.91423662761446 L 200 334.9142366276143 L 210 334.9142366276142 L 220 334.9142366276146 L 230 334.9142366276145 L 240 334.91423662761434 L 250 334.9142366276142 L 260 334.914236627614 L 270 334.9142366276145 L 280 334.91423662761434 L 290 334.9142366276142 L 300 334.9142366276147 L 310 334.9142366276145 L 320 334.9142366276144 L 330 334.91423662761423 L 340 334.91423662761406 L 350 334.91423662761457 L 360 334.9142366276144 L 370 334.91423662761423 L 380 334.91423662761474 L 390 334.91423662761457 L 400 334.9142366276144 L 410 334.9142366276143 L 420 334.91423662761343 L 430 334.91423662761395 L 440 334.91423662761446 L 450 334.91423662761366 L 460 334.9142366276141 L 470 334.9142366276133 L 480 334.91423662761383 L 490 334.9142366276143" stroke="rgb(191,15,13)" stroke-width="2" /><path d="M 0 279.3669407308559 L 0 328.65608607916545 L 10 328.65608607916545 L 20 328.65608607916545 L 30 328.65608607916545 L 40 328.65608607916545 L 50 328.65608607916545 L 60 328.65608607916545 L 70 328.65608607916545 L 80 328.65608607916545 L 90 328.65608607916545 L 100 328.65608607916545 L 110 328.6560860791654 L 120 328.65608607916545 L 130 328.6560860791655 L 140 328.65608607916545 L 150 328.6560860791654 L 160 328.65608607916545 L 170 328.6560860791655 L 180 328.65608607916545 L 190 328.6560860791654 L 200 328.65608607916545 L 210 328.6560860791654 L 220 328.6560860791652 L 230 328.6560860791653 L 240 328.65608607916533 L 250 328.6560860791654 L 260 328.65608607916545 L 270 328.6560860791653 L 280 328.65608607916533 L 290 328.6560860791654 L 300 328.6560860791652 L 310 328.6560860791652 L 320 328.65608607916533 L 330 328.6560860791654 L 340 328.65608607916545 L 350 328.6560860791652 L 360 328.6560860791653 L 370 328.65608607916533 L 380 328.65608607916516 L 390 328.6560860791652 L 400 328.6560860791653 L 410 328.6560860791651 L 420 328.6560860791654 L 430 328.6560860791652 L 440 328.65608607916505 L 450 328.65608607916533 L 460 328.65608607916516 L 470 328.65608607916545 L 480 328.6560860791653 L 490 328.6560860791651" stroke="rgb(88,66,190)" stroke-width="2" /><path d="M 0 382.22077149266056 L 0 431.731622333604 L 10 431.731622333604 L 20 431.731622333604 L 30 431.731622333604 L 40 431.731622333604 L 50 431.731622333604 L 60 431.731622333604 L 70 431.731622333604 L 80 431.731622333604 L 90 431.731622333604 L 100 431.7316223336039 L 110 431.73162233360387 L 120 431.7316223336039 L 130 431.731622333604 L 140 431.7316223336039 L 150 431.73162233360387 L 160 431.7316223336039 L 170 431.731622333604 L 180 431.7316223336039 L 190 431.73162233360387 L 200 431.7316223336039 L 210 431.7316223336039 L 220 431.7316223336038 L 230 431.73162233360387 L 240 431.7316223336039 L 250 431.7316223336039 L 260 431.731622333604 L 270 431.73162233360387 L 280 431.7316223336039 L 290 431.7316223336039 L 300 431.7316223336038 L 310 431.7316223336038 L 320 431.73162233360387 L 330 431.7316223336039 L 340 431.731622333604 L 350 431.7316223336038 L 360 431.73162233360387 L 370 431.7316223336039 L 380 431.73162233360375 L 390 431.7316223336038 L 400 431.73162233360387 L 410 431.7316223336037 L 420 431.731622333604 L 430 431.7316223336038 L 440 431.7316223336037 L 450 431.7316223336039 L 460 431.73162233360375 L 470 431.73162233360404 L 480 431.73162233360387 L 490 431.7316223336037" stroke="rgb(131,170,197)" stroke-width="2" /><path d="M 0 310.31307768770074 L 0 350.82922158428573 L 10 350.82922158428573 L 20 350.82922158428573 L 30 350.8292215842857 L 40 350.8292215842857 L 50 350.82922158428556 L 60 350.82922158428556 L 70 350.82922158428556 L 80 350.82922158428556 L 90 350.82922158428556 L 100 350.82922158428556 L 110 350.8292215842855 L 120 350.82922158428573 L 130 350.82922158428596 L 140 350.82922158428573 L 150 350.8292215842855 L 160 350.82922158428573 L 170 350.8292215842859 L 180 350.8292215842857 L 190 350.8292215842855 L 200 350.8292215842857 L 210 350.82922158428545 L 220 350.8292215842848 L 230 350.82922158428505 L 240 350.8292215842852 L 250 350.82922158428545 L 260 350.8292215842856 L 270 350.829221584285 L 280 350.8292215842852 L 290 350.8292215842854 L 300 350.82922158428477 L 310 350.829221584285 L 320 350.82922158428516 L 330 350.8292215842854 L 340 350.82922158428556 L 350 350.82922158428494 L 360 350.82922158428516 L 370 350.82922158428534 L 380 350.8292215842847 L 390 350.82922158428494 L 400 350.8292215842851 L 410 350.8292215842845 L 420 350.8292215842855 L 430 350.8292215842849 L 440 350.82922158428426 L 450 350.8292215842853 L 460 350.82922158428465 L 470 350.8292215842857 L 480 350.82922158428505 L 490 350.8292215842844" stroke="rgb(13,131,205)" stroke-width="2" /></g></svg>